<?xml version="1.0" encoding="utf-8"?>
<!-- Generator: Adobe Illustrator 16.0.3, SVG Export Plug-In . SVG Version: 6.00 Build 0)  -->
<!DOCTYPE svg PUBLIC "-//W3C//DTD SVG 1.1//EN" "http://www.w3.org/Graphics/SVG/1.1/DTD/svg11.dtd">
<svg version="1.1" id="Layer_1" xmlns="http://www.w3.org/2000/svg" xmlns:xlink="http://www.w3.org/1999/xlink" x="0px" y="0px"
	 width="43.282px" height="14.767px" viewBox="0 0 43.282 14.767" enable-background="new 0 0 43.282 14.767" xml:space="preserve">
<g>
	<defs>
		<rect id="SVGID_1_" x="-830.722" y="21.228" width="1200" height="1651.557"/>
	</defs>
	<clipPath id="SVGID_2_">
		<use xlink:href="#SVGID_1_"  overflow="visible"/>
	</clipPath>
	<g clip-path="url(#SVGID_2_)">
		<defs>
			<rect id="SVGID_3_" x="-830.722" y="-917.824" width="1200" height="700"/>
		</defs>
		<clipPath id="SVGID_4_">
			<use xlink:href="#SVGID_3_"  overflow="visible"/>
		</clipPath>
		<g opacity="0.3" clip-path="url(#SVGID_4_)">
			<g>
				<defs>
					<rect id="SVGID_5_" x="-1066.01" y="-1378.345" width="1586.798" height="1462.38"/>
				</defs>
				<clipPath id="SVGID_6_">
					<use xlink:href="#SVGID_5_"  overflow="visible"/>
				</clipPath>
				<g opacity="0.3" clip-path="url(#SVGID_6_)">
					<g>
						<defs>
							<rect id="SVGID_7_" x="-1066.01" y="-1378.345" width="1580.618" height="1457.9"/>
						</defs>
						<clipPath id="SVGID_8_">
							<use xlink:href="#SVGID_7_"  overflow="visible"/>
						</clipPath>
						
							<rect x="-1118.88" y="-297.47" transform="matrix(0.866 0.5 -0.5 0.866 -212.8296 199.653)" clip-path="url(#SVGID_8_)" fill="#660038" width="1279.814" height="0.3"/>
						
							<rect x="-1125.437" y="-286.113" transform="matrix(0.866 0.5 -0.5 0.866 -208.0296 204.4532)" clip-path="url(#SVGID_8_)" fill="#660038" width="1279.813" height="0.3"/>
						
							<rect x="-1131.994" y="-274.755" transform="matrix(0.866 0.5 -0.5 0.866 -203.2292 209.2533)" clip-path="url(#SVGID_8_)" fill="#660038" width="1279.814" height="0.3"/>
						
							<rect x="-1138.551" y="-263.398" transform="matrix(0.866 0.5 -0.5 0.866 -198.4297 214.0537)" clip-path="url(#SVGID_8_)" fill="#660038" width="1279.814" height="0.3"/>
						
							<rect x="-1145.109" y="-252.041" transform="matrix(0.866 0.5 -0.5 0.866 -193.6293 218.8538)" clip-path="url(#SVGID_8_)" fill="#660038" width="1279.814" height="0.3"/>
						
							<rect x="-1151.666" y="-240.683" transform="matrix(0.866 0.5 -0.5 0.866 -188.8293 223.6541)" clip-path="url(#SVGID_8_)" fill="#660038" width="1279.814" height="0.3"/>
					</g>
				</g>
				<g opacity="0.3" clip-path="url(#SVGID_6_)">
					<g>
						<defs>
							<rect id="SVGID_9_" x="-1059.826" y="-1373.865" width="1580.614" height="1457.9"/>
						</defs>
						<clipPath id="SVGID_10_">
							<use xlink:href="#SVGID_9_"  overflow="visible"/>
						</clipPath>
						
							<rect x="-66.395" y="-932.743" transform="matrix(0.501 0.8654 -0.8654 0.501 -286.4818 -88.7843)" clip-path="url(#SVGID_10_)" fill="#660038" width="0.3" height="1279.814"/>
						
							<rect x="-59.838" y="-921.386" transform="matrix(0.501 0.8654 -0.8654 0.501 -273.3809 -88.7922)" clip-path="url(#SVGID_10_)" fill="#660038" width="0.3" height="1279.815"/>
						
							<rect x="-53.281" y="-910.028" transform="matrix(0.4998 0.8661 -0.8661 0.4998 -260.5354 -89.092)" clip-path="url(#SVGID_10_)" fill="#660038" width="0.3" height="1279.813"/>
						
							<rect x="-46.723" y="-898.671" transform="matrix(0.501 0.8654 -0.8654 0.501 -247.1792 -88.808)" clip-path="url(#SVGID_10_)" fill="#660038" width="0.3" height="1279.814"/>
						
							<rect x="-40.166" y="-887.313" transform="matrix(0.501 0.8654 -0.8654 0.501 -234.079 -88.8158)" clip-path="url(#SVGID_10_)" fill="#660038" width="0.3" height="1279.813"/>
						
							<rect x="-33.609" y="-875.957" transform="matrix(0.501 0.8654 -0.8654 0.501 -220.9785 -88.824)" clip-path="url(#SVGID_10_)" fill="#660038" width="0.3" height="1279.814"/>
					</g>
				</g>
			</g>
		</g>
	</g>
</g>
</svg>
